<svg width="12" height="12" viewBox="0 0 12 12" fill="none" xmlns="http://www.w3.org/2000/svg">
<path d="M5.81135 0.82463C5.94779 0.370794 6.54189 0.370794 6.67833 0.824629L7.67751 4.14804C7.73853 4.351 7.91354 4.48842 8.111 4.48842H11.3444C11.786 4.48842 11.9695 5.09905 11.6123 5.37953L8.99644 7.43351C8.83669 7.55895 8.76984 7.78129 8.83086 7.98425L9.83004 11.3077C9.96649 11.7615 9.48586 12.1389 9.12864 11.8584L6.51276 9.80443C6.353 9.67899 6.13668 9.67899 5.97693 9.80443L3.36105 11.8584C3.00383 12.1389 2.5232 11.7615 2.65964 11.3077L3.65882 7.98425C3.71984 7.78129 3.65299 7.55895 3.49324 7.43351L0.87736 5.37953C0.520143 5.09905 0.703728 4.48842 1.14527 4.48842H4.37868C4.57614 4.48842 4.75115 4.351 4.81217 4.14804L5.81135 0.82463Z" fill="#FFD336"/>
</svg>
